<svg xmlns="http://www.w3.org/2000/svg" width="400" height="300" viewBox="0 0 400 300">
  <rect width="400" height="300" fill="#f3f4f6"/>
  <g transform="translate(80, 40)">
    <!-- Здание 1 -->
    <rect x="10" y="80" width="60" height="150" fill="#e2e8f0"/>
    <rect x="20" y="100" width="15" height="20" fill="#93c5fd"/>
    <rect x="45" y="100" width="15" height="20" fill="#93c5fd"/>
    <rect x="20" y="140" width="15" height="20" fill="#93c5fd"/>
    <rect x="45" y="140" width="15" height="20" fill="#93c5fd"/>
    <rect x="20" y="180" width="15" height="20" fill="#93c5fd"/>
    <rect x="45" y="180" width="15" height="20" fill="#93c5fd"/>
    <polygon points="10,80 40,40 70,80" fill="#cbd5e1"/>

    <!-- Здание 2 -->
    <rect x="90" y="50" width="70" height="180" fill="#cbd5e1"/>
    <polygon points="90,50 125,20 160,50" fill="#94a3b8"/>
    <rect x="105" y="70" width="15" height="20" fill="#93c5fd"/>
    <rect x="130" y="70" width="15" height="20" fill="#93c5fd"/>
    <rect x="105" y="110" width="15" height="20" fill="#93c5fd"/>
    <rect x="130" y="110" width="15" height="20" fill="#93c5fd"/>
    <rect x="105" y="150" width="15" height="20" fill="#93c5fd"/>
    <rect x="130" y="150" width="15" height="20" fill="#93c5fd"/>
    <rect x="105" y="190" width="15" height="20" fill="#93c5fd"/>
    <rect x="130" y="190" width="15" height="20" fill="#93c5fd"/>

    <!-- Здание 3 -->
    <rect x="180" y="100" width="55" height="130" fill="#e2e8f0"/>
    <rect x="190" y="120" width="15" height="15" fill="#93c5fd"/>
    <rect x="215" y="120" width="15" height="15" fill="#93c5fd"/>
    <rect x="190" y="150" width="15" height="15" fill="#93c5fd"/>
    <rect x="215" y="150" width="15" height="15" fill="#93c5fd"/>
    <rect x="190" y="180" width="15" height="15" fill="#93c5fd"/>
    <rect x="215" y="180" width="15" height="15" fill="#93c5fd"/>
    <polygon points="180,100 207,70 235,100" fill="#cbd5e1"/>
    
    <!-- Деревья -->
    <circle cx="30" y="250" r="10" fill="#84cc16"/>
    <circle cx="150" y="260" r="12" fill="#84cc16"/>
    <circle cx="210" y="250" r="8" fill="#84cc16"/>
    
    <!-- Надпись "Проект ЖК" -->
    <text x="110" y="20" font-family="Arial" font-size="16" font-weight="bold" fill="#334155">Проект ЖК</text>
  </g>
</svg>